<?xml version="1.0" encoding="UTF-8" standalone="no"?>
<svg
   version="1.1"
   id="Layer_1"
   x="0px"
   y="0px"
   width="576.62891"
   viewBox="0 0 576.62891 185.49106"
   enable-background="new 0 0 1024 480"
   xml:space="preserve"
   sodipodi:docname="logo-dark.svg"
   inkscape:version="1.4.2 (f4327f4, 2025-05-13)"
   height="185.49106"
   xmlns:inkscape="http://www.inkscape.org/namespaces/inkscape"
   xmlns:sodipodi="http://sodipodi.sourceforge.net/DTD/sodipodi-0.dtd"
   xmlns="http://www.w3.org/2000/svg"
   xmlns:svg="http://www.w3.org/2000/svg"><defs
   id="defs9" /><sodipodi:namedview
   id="namedview9"
   pagecolor="#ffffff"
   bordercolor="#000000"
   borderopacity="0.25"
   inkscape:showpageshadow="2"
   inkscape:pageopacity="0.0"
   inkscape:pagecheckerboard="0"
   inkscape:deskcolor="#d1d1d1"
   inkscape:zoom="1.6104167"
   inkscape:cx="284.08796"
   inkscape:cy="84.139714"
   inkscape:window-width="1920"
   inkscape:window-height="991"
   inkscape:window-x="-9"
   inkscape:window-y="-9"
   inkscape:window-maximized="1"
   inkscape:current-layer="Layer_1" />
<path
   fill="#000000"
   opacity="1"
   stroke="none"
   d="m 106.3902,163.56672 c -10.499304,0.002 -20.505134,0.22748 -30.495734,-0.0657 -7.65368,-0.22458 -14.3757,1.952 -20.76465,5.95019 -7.76489,4.85932 -15.6723,9.49103 -23.52554,14.20877 -2.49396,1.49823 -5.09616,2.93448 -7.79939,0.59873 -2.66602,-2.30368 -1.97116,-5.21369 -0.65045,-7.80475 11.58,-22.71817 13.63508,-46.9855 12.03895,-71.91342 -0.59076,-9.227107 0.22818,-18.380167 4.03873,-26.935457 8.96673,-20.13156 24.78918,-30.58343 46.61856,-31.04849 23.654364,-0.50397 47.328644,-0.27974 70.992104,-0.0963 29.40023,0.22788 50.88409,22.09566 50.77755,51.59195 -0.0288,7.970987 0.71488,15.960247 -0.68805,23.925857 -4.23983,24.07312 -24.71328,41.52997 -49.04565,41.58533 -16.99872,0.0387 -33.99762,0.005 -51.49643,0.003 M 71.382356,111.75897 c 4.78717,4.3667 9.55441,8.75555 14.37042,13.09021 2.20782,1.98715 4.76303,3.8208 7.31125,0.86981 2.39361,-2.772 -0.40741,-4.52914 -2.0723,-6.19144 -3.72778,-3.72189 -7.60034,-7.29876 -11.79837,-11.30124 4.36081,-4.16919 8.31976,-7.88395 12.19165,-11.687337 1.76425,-1.73304 4.03198,-3.61835 1.59381,-6.30039 -2.42923,-2.67221 -4.83349,-1.30302 -6.914,0.67082 -4.94232,4.68895 -9.82938,9.436417 -14.71753,14.182087 -1.94559,1.88888 -2.36462,3.94403 0.0351,6.66748 M 124.2861,91.668573 c -2.37912,5.29743 -4.79355,10.579347 -7.1279,15.896397 -2.6,5.92221 -5.11373,11.8822 -7.69271,17.81375 -1.0163,2.33749 -1.42298,4.70727 1.21618,6.06558 2.92902,1.50751 4.61606,-0.4805 5.91211,-2.83673 0.31925,-0.58041 0.58588,-1.19138 0.85285,-1.79874 5.00711,-11.39126 10.02169,-22.77929 15.00641,-34.180337 1.1202,-2.56221 2.90743,-5.44276 -0.82926,-7.26032 -3.68887,-1.79429 -4.90228,1.32439 -6.27756,3.77912 -0.32205,0.57484 -0.52441,1.21673 -1.06012,2.52128 m 31.29926,8.991337 c 1.32184,1.26147 2.51709,2.70102 3.99084,3.74884 3.50968,2.49539 3.3808,4.7146 0.11429,7.38632 -3.07852,2.51797 -5.92642,5.32858 -8.77316,8.11533 -1.72266,1.68643 -3.30127,3.72888 -1.13864,6.03076 1.98846,2.11645 4.29327,1.43982 6.1962,-0.30445 5.14163,-4.71292 10.22756,-9.48758 15.28131,-14.29486 1.55456,-1.47879 2.61697,-3.37979 0.75152,-5.21606 -5.67734,-5.58859 -11.44436,-11.089167 -17.28976,-16.501677 -1.52664,-1.41354 -3.38046,-1.23785 -4.8757,0.38648 -1.47074,1.59768 -1.52066,3.3453 -0.094,4.91362 1.67307,1.83927 3.53412,3.50759 5.83713,5.735697 z"
   id="path1"
   style="fill:#3b82f6;fill-opacity:1" />
<path
   fill="#000000"
   opacity="1"
   stroke="none"
   d="m 13.686276,58.351943 c 0.001,14.83156 0.0381,29.16327 -0.0141,43.494627 -0.0224,6.15771 1.63609,11.0444 8.07593,13.42517 3.2301,1.19415 4.46714,6.28635 2.86581,9.99579 -1.55702,3.60687 -4.39951,3.41101 -7.56493,2.55728 -9.7323901,-2.62485 -16.80046008,-11.73438 -16.87631008,-22.84857 -0.17857,-26.162247 -0.27931,-52.328737 0.006,-78.488937 C 0.34028592,11.692533 12.608866,0.03717274 27.311886,0.02325274 c 39.82827,-0.0377 79.656644,-0.0309 119.484854,0.0301 16.12714,0.0247 28.86166,14.77165026 26.76929,30.78925026 -0.51996,3.98054 -2.76676,5.8032 -6.76431,5.76887 -3.99598,-0.0343 -6.26142,-1.84921 -6.61106,-5.88713 -0.0574,-0.66305 -0.034,-1.33266 -0.0709,-1.99799 -0.54401,-9.80648 -5.85489,-15.07531 -15.53305,-15.08424 -38.49518,-0.0355 -76.990484,-0.0262 -115.485664,0.0307 -9.72615,0.0143 -15.36767,5.82772 -15.41542,15.68275 -0.046,9.49858 -0.004,18.99759 3.2e-4,28.9964 z"
   id="path2"
   style="fill:#3b82f6;fill-opacity:1" />



<g
   id="g15"
   style="fill:#ffffff;fill-opacity:1"
   transform="translate(-227.6098,-155.64806)"><path
     fill="#000000"
     opacity="1"
     stroke="none"
     d="m 662.76294,240.45187 c 10.12756,-9.56297 21.95129,-10.53979 34.29419,-7.38411 11.04492,2.82386 18.25055,9.99105 20.64038,21.43076 0.40503,1.93892 0.61804,3.9532 0.62671,5.93398 0.0592,13.49813 0.0668,26.9967 0.0333,40.49499 -0.0138,5.56046 -0.6618,6.05734 -7.08581,6.04996 -6.65631,-0.008 -7.49646,-0.65415 -7.51837,-6.27683 -0.0488,-12.49835 0.0448,-24.99753 -0.0529,-37.49536 -0.10834,-13.86647 -10.66083,-21.69279 -23.97729,-17.90793 -7.87775,2.23903 -12.2948,8.21764 -12.37928,17.24671 -0.11847,12.66415 -0.017,25.33017 -0.0656,37.99518 -0.0226,5.90072 -0.77014,6.4674 -7.82739,6.4599 -6.18103,-0.007 -6.7934,-0.54029 -6.81092,-6.33078 -0.0376,-12.49842 0.14307,-25.00031 -0.0918,-37.49466 -0.27075,-14.40282 -12.21265,-22.48003 -25.50611,-17.51398 -6.95404,2.59784 -10.8059,8.04272 -10.91815,16.2883 -0.16797,12.32947 -0.0329,24.66284 -0.0485,36.99457 -0.009,7.26495 -6.15106,10.80459 -12.85474,7.47802 -1.77252,-0.87957 -2.27728,-2.41693 -2.24792,-4.12249 0.25763,-14.97886 -1.07227,-30.00031 0.68933,-44.93183 1.6662,-14.12221 12.81439,-24.48038 27.117,-25.604 10.84058,-0.85164 20.97919,0.89084 29.1745,8.81251 1.62275,1.56859 2.99976,1.9599 4.80927,-0.12291 z"
     id="path3"
     style="fill:#ffffff;fill-opacity:1" /><path
     fill="#000000"
     opacity="1"
     stroke="none"
     d="m 804.20264,267.89752 c 0.3764,5.47681 -2.21045,7.20359 -6.95148,7.16959 -15.15265,-0.10864 -30.30658,-0.0639 -45.45996,-0.0283 -5.66132,0.0133 -6.46039,1.22964 -4.56268,6.57266 3.48071,9.8002 13.83422,15.30377 26.10351,13.86389 5.30853,-0.62298 10.5802,-1.50262 15.37842,-3.98559 4.53949,-2.34906 6.67438,-0.038 8.53192,3.74554 1.93091,3.93305 0.10114,5.87528 -3.24799,7.36749 -11.10144,4.94635 -22.69574,6.6706 -34.59326,4.28052 -18.19745,-3.65573 -29.52441,-18.23898 -29.2987,-36.99615 0.22046,-18.31482 9.65912,-32.032 25.37195,-36.59839 9.22155,-2.67992 18.45086,-2.45822 27.4259,1.06151 15.00793,5.88562 20.41131,18.06828 21.30237,33.54719 M 781.73627,248.6787 c -1.60321,-0.86669 -3.14069,-1.89646 -4.82019,-2.57407 -12.51477,-5.04926 -26.28522,0.63791 -29.99323,12.23238 -1.11548,3.48809 -0.72198,5.33056 3.58527,5.25552 9.62518,-0.16776 19.25793,0.0876 28.8825,-0.0969 2.98945,-0.0573 7.26764,1.7684 8.71833,-1.45246 1.63275,-3.62518 -1.2218,-7.25149 -3.38214,-10.41543 -0.64411,-0.94336 -1.60242,-1.67214 -2.99054,-2.94905 z"
     id="path4"
     style="fill:#ffffff;fill-opacity:1" /><path
     fill="#000000"
     opacity="1"
     stroke="none"
     d="m 482.04675,245.09625 c -6.78943,-0.15443 -9.48773,-4.28166 -7.17489,-10.18001 0.96701,-2.46608 3.06604,-2.16716 5.03158,-2.24107 9.75113,-0.36665 9.75125,-0.3623 9.75138,-10.06511 3e-5,-1.16577 -10e-4,-2.33156 8.8e-4,-3.49733 0.0158,-7.93628 0.69485,-8.47116 8.44244,-8.34044 4.43839,0.0749 6.42243,1.94533 6.20478,6.39186 -0.14636,2.99018 0.24371,6.02095 -0.0659,8.98555 -0.51508,4.93203 1.14572,7.00273 6.36783,6.60491 5.46448,-0.41635 10.98907,0.031 16.4787,-0.15509 4.05127,-0.13732 5.18127,1.90567 5.19714,5.51799 0.016,3.65475 -0.30945,6.86557 -5.01776,6.92311 -5.66119,0.0692 -11.33301,0.2381 -16.98257,-0.0208 -4.42173,-0.20261 -6.27299,1.14337 -6.09534,5.90559 0.33499,8.98064 0.0904,17.98262 0.0982,26.97572 0.0129,14.89658 7.11301,20.33149 21.36722,15.87729 4.87683,-1.52392 7.09552,0.18784 8.79248,4.39975 1.34845,3.34699 0.48908,5.56824 -2.73694,6.78476 -9.86456,3.72 -19.84182,4.41794 -29.58801,-0.14752 -8.37546,-3.92334 -12.18893,-11.12528 -12.38873,-20.11237 -0.24051,-10.81982 -0.0608,-21.64883 -0.075,-32.47387 -0.009,-7.07138 -0.0188,-7.07137 -7.60752,-7.13294 z"
     id="path5"
     style="fill:#ffffff;fill-opacity:1" /><path
     fill="#000000"
     opacity="1"
     stroke="none"
     d="m 566.99915,259.7865 c 5.32476,0.011 10.15356,0.14636 14.97369,-0.002 4.70233,-0.14459 6.05261,2.39172 6.01599,6.55578 -0.0353,4.01914 -1.46063,6.12848 -5.90686,6.05957 -11.64392,-0.18045 -23.29327,-0.15689 -34.93848,-0.0327 -4.26733,0.0454 -5.42529,-2.10413 -5.4544,-5.89649 -0.0293,-3.82403 0.7901,-6.65066 5.34399,-6.65466 6.48877,-0.006 12.97754,-0.0192 19.96607,-0.0297 z"
     id="path6"
     style="fill:#ffffff;fill-opacity:1" /></g>
<path
   fill="#000000"
   opacity="1"
   stroke="none"
   d="m 72.533686,34.613723 c -3.32068,2.70163 -6.38257,2.75862 -9.19766,0.0137 -2.15933,-2.10553 -2.37924,-4.65735 -0.92255,-7.30012 1.46842,-2.66404 3.81013,-3.6353 6.71598,-3.1213 4.52316,0.80008 6.03323,5.05187 3.40423,10.40775 z"
   id="path7"
   style="fill:#3b82f6;fill-opacity:1" />
<path
   fill="#000000"
   opacity="1"
   stroke="none"
   d="m 29.640806,36.548923 c -3.89151,-1.03827 -5.85152,-3.29194 -5.33994,-6.95455 0.42255,-3.02528 2.20772,-5.24336 5.50257,-5.42786 3.76459,-0.21076 6.45617,1.37392 7.02444,5.37502 0.5936,4.17938 -1.62625,6.41022 -7.18707,7.00739 z"
   id="path8"
   style="fill:#3b82f6;fill-opacity:1" />
<path
   fill="#000000"
   opacity="1"
   stroke="none"
   d="m 55.356316,28.772623 c 0.51877,4.00257 -1.0129,6.54691 -4.43148,7.59613 -2.53748,0.7788 -4.93353,0.0604 -6.58576,-2.18798 -1.76278,-2.39885 -1.65878,-4.95702 -0.12274,-7.38788 2.64545,-4.18657 7.58124,-3.44646 11.13998,1.97973 z"
   id="path9"
   style="display:inline;fill:#3b82f6;fill-opacity:1" />
</svg>
