<?xml version="1.0" encoding="UTF-8" standalone="no"?>
<svg
   version="1.1"
   id="Layer_1"
   x="0px"
   y="0px"
   width="207.79185"
   viewBox="0 0 207.79185 185.49103"
   enable-background="new 0 0 1024 480"
   xml:space="preserve"
   sodipodi:docname="logo.min.svg"
   inkscape:version="1.4.2 (f4327f4, 2025-05-13)"
   height="185.49103"
   xmlns:inkscape="http://www.inkscape.org/namespaces/inkscape"
   xmlns:sodipodi="http://sodipodi.sourceforge.net/DTD/sodipodi-0.dtd"
   xmlns="http://www.w3.org/2000/svg"
   xmlns:svg="http://www.w3.org/2000/svg"><defs
   id="defs9" /><sodipodi:namedview
   id="namedview9"
   pagecolor="#ffffff"
   bordercolor="#000000"
   borderopacity="0.25"
   inkscape:showpageshadow="2"
   inkscape:pageopacity="0.0"
   inkscape:pagecheckerboard="0"
   inkscape:deskcolor="#d1d1d1"
   inkscape:zoom="1.6104167"
   inkscape:cx="173.55757"
   inkscape:cy="144.99353"
   inkscape:window-width="1920"
   inkscape:window-height="991"
   inkscape:window-x="-9"
   inkscape:window-y="-9"
   inkscape:window-maximized="1"
   inkscape:current-layer="Layer_1" />
<path
   fill="#000000"
   opacity="1"
   stroke="none"
   d="m 106.39025,163.56673 c -10.4993,0.002 -20.50513,0.22748 -30.49573,-0.0657 -7.65368,-0.22458 -14.3757,1.952 -20.76465,5.95019 -7.76489,4.85932 -15.6723,9.49103 -23.52554,14.20877 -2.49396,1.49823 -5.09616,2.93448 -7.79939,0.59873 -2.66602,-2.30368 -1.97116,-5.21369 -0.65045,-7.80475 11.58,-22.71817 13.63508,-46.9855 12.03895,-71.91342 -0.59076,-9.227106 0.22818,-18.380166 4.03873,-26.935456 8.96673,-20.13156 24.78918,-30.58343 46.61856,-31.04849 23.65436,-0.50397 47.32864,-0.27974 70.9921,-0.0963 29.40023,0.22788 50.88409,22.09566 50.77755,51.59195 -0.0288,7.970986 0.71488,15.960246 -0.68805,23.925856 -4.23983,24.07312 -24.71328,41.52997 -49.04565,41.58533 -16.99872,0.0387 -33.99762,0.005 -51.49643,0.003 M 71.38241,111.75898 c 4.78717,4.3667 9.55441,8.75555 14.37042,13.09021 2.20782,1.98715 4.76303,3.8208 7.31125,0.86981 2.39361,-2.772 -0.40741,-4.52914 -2.0723,-6.19144 -3.72778,-3.72189 -7.60034,-7.29876 -11.79837,-11.30124 4.36081,-4.16919 8.31976,-7.88395 12.19165,-11.687336 1.76425,-1.73304 4.03198,-3.61835 1.59381,-6.30039 -2.42923,-2.67221 -4.83349,-1.30302 -6.914,0.67082 -4.94232,4.68895 -9.82938,9.436416 -14.71753,14.182086 -1.94559,1.88888 -2.36462,3.94403 0.0351,6.66748 m 52.90371,-20.090396 c -2.37912,5.29743 -4.79355,10.579346 -7.1279,15.896396 -2.6,5.92221 -5.11373,11.8822 -7.69271,17.81375 -1.0163,2.33749 -1.42298,4.70727 1.21618,6.06558 2.92902,1.50751 4.61606,-0.4805 5.91211,-2.83673 0.31925,-0.58041 0.58588,-1.19138 0.85285,-1.79874 5.00711,-11.39126 10.02169,-22.77929 15.00641,-34.180336 1.1202,-2.56221 2.90743,-5.44276 -0.82926,-7.26032 -3.68887,-1.79429 -4.90228,1.32439 -6.27756,3.77912 -0.32205,0.57484 -0.52441,1.21673 -1.06012,2.52128 m 31.29926,8.991336 c 1.32184,1.26147 2.51709,2.70102 3.99084,3.74884 3.50968,2.49539 3.3808,4.7146 0.11429,7.38632 -3.07852,2.51797 -5.92642,5.32858 -8.77316,8.11533 -1.72266,1.68643 -3.30127,3.72888 -1.13864,6.03076 1.98846,2.11645 4.29327,1.43982 6.1962,-0.30445 5.14163,-4.71292 10.22756,-9.48758 15.28131,-14.29486 1.55456,-1.47879 2.61697,-3.37979 0.75152,-5.21606 -5.67734,-5.58859 -11.44436,-11.089166 -17.28976,-16.501676 -1.52664,-1.41354 -3.38046,-1.23785 -4.8757,0.38648 -1.47074,1.59768 -1.52066,3.3453 -0.094,4.91362 1.67307,1.83927 3.53412,3.50759 5.83713,5.735696 z"
   id="path1"
   style="fill:#3b82f6;fill-opacity:1" />
<path
   fill="#000000"
   opacity="1"
   stroke="none"
   d="m 13.68633,58.351954 c 10e-4,14.83156 0.0381,29.16327 -0.0141,43.494626 -0.0224,6.15771 1.63609,11.0444 8.07593,13.42517 3.2301,1.19415 4.46714,6.28635 2.86581,9.99579 -1.55702,3.60687 -4.39951,3.41101 -7.56493,2.55728 -9.7323901,-2.62485 -16.80046009,-11.73438 -16.87631009,-22.84857 -0.17857,-26.162246 -0.27931,-52.328736 0.006,-78.488936 C 0.34033991,11.692544 12.60892,0.03718385 27.31194,0.02326385 c 39.82827,-0.0377 79.65664,-0.0309 119.48485,0.0301 16.12714,0.0247 28.86166,14.77165015 26.76929,30.78925015 -0.51996,3.98054 -2.76676,5.8032 -6.76431,5.76887 -3.99598,-0.0343 -6.26142,-1.84921 -6.61106,-5.88713 -0.0574,-0.66305 -0.034,-1.33266 -0.0709,-1.99799 -0.54401,-9.80648 -5.85489,-15.07531 -15.53305,-15.08424 -38.49518,-0.0355 -76.99048,-0.0262 -115.48566,0.0307 -9.72615,0.0143 -15.36767,5.82772 -15.41542,15.68275 -0.046,9.49858 -0.004,18.99759 3.2e-4,28.9964 z"
   id="path2"
   style="fill:#3b82f6;fill-opacity:1" />



<g
   id="g15"
   style="fill:#000000;fill-opacity:1"
   transform="translate(-227.60975,-155.64805)" />
<path
   fill="#000000"
   opacity="1"
   stroke="none"
   d="m 72.53374,34.613734 c -3.32068,2.70163 -6.38257,2.75862 -9.19766,0.0137 -2.15933,-2.10553 -2.37924,-4.65735 -0.92255,-7.30012 1.46842,-2.66404 3.81013,-3.6353 6.71598,-3.1213 4.52316,0.80008 6.03323,5.05187 3.40423,10.40775 z"
   id="path7"
   style="fill:#3b82f6;fill-opacity:1" />
<path
   fill="#000000"
   opacity="1"
   stroke="none"
   d="m 29.64086,36.548934 c -3.89151,-1.03827 -5.85152,-3.29194 -5.33994,-6.95455 0.42255,-3.02528 2.20772,-5.24336 5.50257,-5.42786 3.76459,-0.21076 6.45617,1.37392 7.02444,5.37502 0.5936,4.17938 -1.62625,6.41022 -7.18707,7.00739 z"
   id="path8"
   style="fill:#3b82f6;fill-opacity:1" />
<path
   fill="#000000"
   opacity="1"
   stroke="none"
   d="m 55.35637,28.772634 c 0.51877,4.00257 -1.0129,6.54691 -4.43148,7.59613 -2.53748,0.7788 -4.93353,0.0604 -6.58576,-2.18798 -1.76278,-2.39885 -1.65878,-4.95702 -0.12274,-7.38788 2.64545,-4.18657 7.58124,-3.44646 11.13998,1.97973 z"
   id="path9"
   style="display:inline;fill:#3b82f6;fill-opacity:1" />
</svg>
